<?xml version="1.0" encoding="UTF-8"?>
<svg id="Livello_1" data-name="Livello 1" xmlns="http://www.w3.org/2000/svg" viewBox="0 0 86 30">
  <defs>
    <style>
      .cls-1 {
        fill: #a20e0e;
      }

      .cls-2 {
        fill: #fdfdfd;
      }
    </style>
  </defs>
  <path class="cls-1" d="M35.17,29.68h49.36c1.19,0,1.2-1.86,0-1.86h-49.36c-1.19,0-1.2,1.86,0,1.86h0Z"/>
  <g>
    <path class="cls-2" d="M14.16,0c2.98,0,5.25.53,6.83,1.6,1.57,1.06,2.36,2.59,2.36,4.57,0,.97-.11,1.8-.34,2.49s-.54,1.27-.94,1.75c-.4.48-.88.88-1.43,1.19s-1.15.58-1.8.8c.45.12.9.45,1.36.98.45.53.92,1.18,1.39,1.96.47.78.95,1.64,1.43,2.59.48.95.97,1.91,1.45,2.88.49.97.98,1.91,1.48,2.83.5.92,1,1.73,1.5,2.45.5.72,1,1.29,1.51,1.72.51.43,1.02.65,1.52.65.22,0,.44-.04.65-.13s.38-.18.5-.26l.34.64c-.22.12-.49.26-.81.41s-.69.29-1.12.42c-.43.13-.91.25-1.44.34-.53.09-1.12.14-1.77.14-1.06,0-2.02-.3-2.88-.89s-1.59-1.42-2.2-2.49c-.62-1.1-1.24-2.26-1.84-3.47-.6-1.21-1.2-2.42-1.8-3.64-.6-1.21-1.19-2.4-1.79-3.56-.6-1.16-1.2-2.24-1.8-3.26l.13-.68c.65.17,1.21.13,1.68-.12.48-.24.87-.64,1.17-1.18.31-.55.53-1.22.68-2.01.15-.79.22-1.65.22-2.58,0-.66-.07-1.28-.21-1.86-.14-.58-.34-1.08-.6-1.52-.26-.44-.57-.78-.93-1.02-.36-.25-.77-.37-1.22-.37-.35,0-.64.05-.86.16-.22.11-.4.24-.53.4-.13.16-.22.33-.27.51s-.07.36-.07.52v19.61c0,.85-.22,1.47-.67,1.85-.44.39-1.12.58-2.03.58s-1.6-.19-2.04-.58-.66-1-.66-1.85V2.78c0-.61-.42-.91-1.25-.91-.6,0-1.21.09-1.83.27-.62.18-1.18.43-1.68.74-.5.32-.91.69-1.22,1.13-.32.44-.48.91-.48,1.41,0,.35.05.63.14.84.09.21.2.37.32.47.12.11.24.17.37.2.13.03.22.04.27.04.27,0,.5-.05.67-.14.18-.09.33-.19.48-.3.14-.11.28-.2.4-.3.13-.09.27-.14.44-.14.13,0,.27.03.42.09.15.06.28.16.41.29.13.13.23.31.32.52s.13.48.13.79c0,.44-.09.82-.25,1.14s-.39.59-.66.8c-.27.21-.57.38-.92.48-.34.1-.69.16-1.03.16-.53,0-1-.09-1.42-.27s-.78-.43-1.08-.75c-.3-.32-.52-.7-.67-1.12-.15-.43-.23-.89-.23-1.37,0-.91.17-1.72.51-2.42s.82-1.3,1.44-1.81c.62-.51,1.36-.93,2.23-1.27.87-.34,1.82-.6,2.88-.8,1.05-.2,2.18-.34,3.38-.42,1.2-.08,2.45-.12,3.74-.12Z"/>
    <path class="cls-2" d="M27.59,16.26c0-1.44.21-2.71.62-3.8.42-1.09.97-1.99,1.67-2.72.7-.73,1.5-1.27,2.42-1.64.92-.36,1.88-.55,2.89-.55s1.97.17,2.89.5c.92.34,1.73.85,2.42,1.55.7.69,1.25,1.57,1.67,2.64s.62,2.32.62,3.78-.21,2.72-.62,3.84c-.42,1.11-.97,2.05-1.67,2.81s-1.5,1.34-2.42,1.73c-.92.39-1.88.59-2.89.59s-1.97-.19-2.89-.55c-.92-.37-1.73-.92-2.42-1.65-.7-.73-1.25-1.64-1.67-2.73s-.62-2.36-.62-3.8ZM37.69,16.09c0-.88-.03-1.73-.09-2.55-.06-.82-.18-1.55-.35-2.19-.18-.64-.43-1.15-.76-1.53-.33-.38-.76-.57-1.3-.57s-.97.2-1.3.6c-.33.4-.58.93-.76,1.59-.18.66-.29,1.4-.35,2.24s-.08,1.7-.08,2.58.03,1.75.08,2.59c.05.84.17,1.6.35,2.26.18.66.43,1.19.76,1.6.33.4.76.6,1.3.6s.97-.21,1.3-.63c.33-.42.58-.97.76-1.65.18-.68.29-1.46.35-2.31.06-.86.09-1.73.09-2.61Z"/>
    <path class="cls-2" d="M44.82,16.26c0-1.44.21-2.71.62-3.8.42-1.09.97-1.99,1.67-2.72.7-.73,1.5-1.27,2.42-1.64.92-.36,1.88-.55,2.89-.55s1.97.17,2.89.5c.92.34,1.73.85,2.42,1.55.7.69,1.25,1.57,1.67,2.64s.62,2.32.62,3.78-.21,2.72-.62,3.84c-.42,1.11-.97,2.05-1.67,2.81s-1.5,1.34-2.42,1.73c-.92.39-1.88.59-2.89.59s-1.97-.19-2.89-.55c-.92-.37-1.73-.92-2.42-1.65-.7-.73-1.25-1.64-1.67-2.73s-.62-2.36-.62-3.8ZM54.93,16.09c0-.88-.03-1.73-.09-2.55-.06-.82-.18-1.55-.35-2.19-.18-.64-.43-1.15-.76-1.53-.33-.38-.76-.57-1.3-.57s-.97.2-1.3.6c-.33.4-.58.93-.76,1.59-.18.66-.29,1.4-.35,2.24s-.08,1.7-.08,2.58.03,1.75.08,2.59c.05.84.17,1.6.35,2.26.18.66.43,1.19.76,1.6.33.4.76.6,1.3.6s.97-.21,1.3-.63c.33-.42.58-.97.76-1.65.18-.68.29-1.46.35-2.31.06-.86.09-1.73.09-2.61Z"/>
    <path class="cls-2" d="M68.39,8.88c-.25,0-.49.03-.72.1-.22.07-.42.17-.6.32s-.31.34-.41.56c-.1.23-.15.49-.15.8,0,.43.16.86.47,1.28.31.42.7.87,1.17,1.32.47.46.97.93,1.51,1.42.54.49,1.05,1.01,1.51,1.55s.85,1.13,1.17,1.74c.31.62.47,1.28.47,1.98,0,.79-.13,1.5-.4,2.12-.27.62-.65,1.14-1.15,1.57s-1.1.76-1.81.98c-.71.23-1.49.34-2.36.34-.76,0-1.44-.11-2.05-.32-.61-.21-1.16-.48-1.63-.79-.48-.31-.88-.65-1.22-1-.34-.35-.6-.67-.79-.96l.58-.41c.14.17.32.35.54.54.22.19.46.37.73.54s.56.3.86.41.62.16.94.16c.79,0,1.43-.19,1.94-.57s.76-.95.76-1.7c0-.42-.14-.85-.41-1.3-.27-.45-.62-.91-1.04-1.38-.42-.47-.87-.96-1.35-1.47-.48-.51-.93-1.03-1.35-1.57-.42-.54-.76-1.1-1.04-1.67-.27-.57-.41-1.17-.41-1.79,0-.69.14-1.3.42-1.82.28-.52.65-.95,1.12-1.29.47-.34,1-.6,1.59-.77.6-.17,1.21-.26,1.85-.26.73,0,1.4.07,2,.2.6.13,1.12.33,1.55.6.43.27.77.61,1,1.02.24.41.35.88.35,1.42,0,.42-.14.78-.41,1.09-.27.31-.66.46-1.15.46s-.83-.1-1.08-.31c-.25-.2-.37-.48-.37-.83,0-.23.06-.41.17-.55.11-.13.24-.24.39-.32s.27-.15.39-.21.17-.14.17-.24c0-.31-.16-.55-.49-.74s-.75-.27-1.27-.27Z"/>
    <path class="cls-2" d="M80.86,8.98v12.22c0,.58.11.99.33,1.22.22.23.52.34.9.34.3,0,.56-.08.79-.25.23-.17.43-.35.59-.56.2-.23.37-.5.51-.81l.51.23c-.16.35-.36.74-.58,1.16-.22.42-.52.81-.9,1.17-.37.36-.84.66-1.41.9-.56.24-1.27.36-2.13.36-.48,0-.94-.07-1.39-.21-.44-.14-.84-.37-1.18-.68-.35-.31-.62-.69-.83-1.16-.21-.46-.31-1.02-.31-1.67v-12.26h-1.84v-1.19c.31,0,.73-.08,1.28-.24.55-.16,1.11-.43,1.68-.8s1.11-.88,1.6-1.51.84-1.41,1.05-2.33h1.31v4.88h2.68c.88,0,1.31-.15,1.31-.45,0-.11-.05-.18-.16-.22s-.23-.09-.37-.15c-.14-.06-.26-.15-.37-.26-.11-.11-.16-.29-.16-.55,0-.31.1-.55.29-.73s.44-.26.75-.26c.2,0,.37.04.52.12.15.08.27.19.37.33.1.14.17.3.22.47s.07.35.07.53c0,.72-.21,1.29-.62,1.71s-1.07.64-1.98.64h-2.55Z"/>
  </g>
</svg>